
<svg width="523px" height="494px" viewBox="203 205 523 494" version="1.1" xmlns="http://www.w3.org/2000/svg" xmlns:xlink="http://www.w3.org/1999/xlink">
    <!-- Generator: Sketch 3.8.3 (29802) - http://www.bohemiancoding.com/sketch -->
    <desc>Created with Sketch.</desc>
    <defs>
        <rect id="path-1" x="0" y="318" width="448" height="55"></rect>
        <mask id="mask-2" maskContentUnits="userSpaceOnUse" maskUnits="objectBoundingBox" x="0" y="0" width="448" height="55" fill="white">
            <use xlink:href="#path-1"></use>
        </mask>
        <rect id="path-3" x="321" y="318" width="127" height="55"></rect>
        <mask id="mask-4" maskContentUnits="userSpaceOnUse" maskUnits="objectBoundingBox" x="0" y="0" width="127" height="55" fill="white">
            <use xlink:href="#path-3"></use>
        </mask>
        <path d="M159.135338,67.32 L149.774436,67.32 L119.070677,67.32 L82.3759398,67.32 L82.3759398,99.11 L126.559398,99.11 C122.440602,119.306 105.216541,130.9 82.3759398,130.9 C55.4165414,130.9 33.6992481,109.208 33.6992481,82.28 C33.6992481,55.352 55.4165414,33.66 82.3759398,33.66 C93.9834586,33.66 104.467669,37.774 112.705263,44.506 L136.669173,20.57 C122.066165,7.854 103.344361,0 82.3759398,0 C36.6947368,0 0,36.652 0,82.28 C0,127.908 36.6947368,164.56 82.3759398,164.56 C123.56391,164.56 161.007519,134.64 161.007519,82.28 C161.007519,77.418 160.258647,72.182 159.135338,67.32 L159.135338,67.32 Z" id="path-5"></path>
        <path d="M159.135338,67.32 L149.774436,67.32 L119.070677,67.32 L82.3759398,67.32 L82.3759398,99.11 L126.559398,99.11 C122.440602,119.306 105.216541,130.9 82.3759398,130.9 C55.4165414,130.9 33.6992481,109.208 33.6992481,82.28 C33.6992481,55.352 55.4165414,33.66 82.3759398,33.66 C93.9834586,33.66 104.467669,37.774 112.705263,44.506 L136.669173,20.57 C122.066165,7.854 103.344361,0 82.3759398,0 C36.6947368,0 0,36.652 0,82.28 C0,127.908 36.6947368,164.56 82.3759398,164.56 C123.56391,164.56 161.007519,134.64 161.007519,82.28 C161.007519,77.418 160.258647,72.182 159.135338,67.32 L159.135338,67.32 Z" id="path-7"></path>
        <path d="M159.135338,67.32 L149.774436,67.32 L119.070677,67.32 L82.3759398,67.32 L82.3759398,99.11 L126.559398,99.11 C122.440602,119.306 105.216541,130.9 82.3759398,130.9 C55.4165414,130.9 33.6992481,109.208 33.6992481,82.28 C33.6992481,55.352 55.4165414,33.66 82.3759398,33.66 C93.9834586,33.66 104.467669,37.774 112.705263,44.506 L136.669173,20.57 C122.066165,7.854 103.344361,0 82.3759398,0 C36.6947368,0 0,36.652 0,82.28 C0,127.908 36.6947368,164.56 82.3759398,164.56 C123.56391,164.56 161.007519,134.64 161.007519,82.28 C161.007519,77.418 160.258647,72.182 159.135338,67.32 L159.135338,67.32 Z" id="path-9"></path>
        <path d="M159.135338,67.32 L149.774436,67.32 L119.070677,67.32 L82.3759398,67.32 L82.3759398,99.11 L126.559398,99.11 C122.440602,119.306 105.216541,130.9 82.3759398,130.9 C55.4165414,130.9 33.6992481,109.208 33.6992481,82.28 C33.6992481,55.352 55.4165414,33.66 82.3759398,33.66 C93.9834586,33.66 104.467669,37.774 112.705263,44.506 L136.669173,20.57 C122.066165,7.854 103.344361,0 82.3759398,0 C36.6947368,0 0,36.652 0,82.28 C0,127.908 36.6947368,164.56 82.3759398,164.56 C123.56391,164.56 161.007519,134.64 161.007519,82.28 C161.007519,77.418 160.258647,72.182 159.135338,67.32 L159.135338,67.32 Z" id="path-11"></path>
    </defs>
    <g id="Group-3" stroke="none" stroke-width="1" fill="none" fill-rule="evenodd" transform="translate(203.000000, 205.000000)">
        <g id="Group-2" transform="translate(39.000000, 75.000000)">
            <use id="Rectangle-24" stroke="#979797" mask="url(#mask-2)" stroke-width="2" fill="#D8D8D8" xlink:href="#path-1"></use>
            <use id="Rectangle-25" stroke="#979797" mask="url(#mask-4)" stroke-width="2" fill="#4990E2" xlink:href="#path-3"></use>
            <text id="Search" font-family="AndaleMono, Andale Mono" font-size="28" font-weight="normal" letter-spacing="-0.620000005" fill="#FFFFFF">
                <tspan x="336.451797" y="353">Search</tspan>
            </text>
            <g id="Group" transform="translate(143.000000, 0.000000)">
                <g id="Clipped">
                    <mask id="mask-6" fill="white">
                        <use xlink:href="#path-5"></use>
                    </mask>
                    <g id="SVGID_1_"></g>
                    <polygon id="Shape" fill="#FBBC05" mask="url(#mask-6)" points="-7.4887218 130.9 -7.4887218 33.66 56.1654135 82.28"></polygon>
                </g>
                <g id="Clipped">
                    <mask id="mask-8" fill="white">
                        <use xlink:href="#path-7"></use>
                    </mask>
                    <g id="SVGID_1_"></g>
                    <polygon id="Shape" fill="#EA4335" mask="url(#mask-8)" points="-7.4887218 33.66 56.1654135 82.28 82.3759398 59.466 172.240602 44.88 172.240602 -7.48 -7.4887218 -7.48"></polygon>
                </g>
                <g id="Clipped">
                    <mask id="mask-10" fill="white">
                        <use xlink:href="#path-9"></use>
                    </mask>
                    <g id="SVGID_1_"></g>
                    <polygon id="Shape" fill="#34A853" mask="url(#mask-10)" points="-7.4887218 130.9 104.842105 44.88 134.422556 48.62 172.240602 -7.48 172.240602 172.04 -7.4887218 172.04"></polygon>
                </g>
                <g id="Clipped">
                    <mask id="mask-12" fill="white">
                        <use xlink:href="#path-11"></use>
                    </mask>
                    <g id="SVGID_1_"></g>
                    <polygon id="Shape" fill="#4285F4" mask="url(#mask-12)" points="172.240602 172.04 56.1654135 82.28 41.1879699 71.06 172.240602 33.66"></polygon>
                </g>
            </g>
        </g>
        <rect id="Rectangle-3" fill-opacity="0" fill="#D8D8D8" x="0" y="0" width="523" height="494"></rect>
    </g>
</svg>
